<svg width="12" height="12" viewBox="0 0 12 12" fill="none" xmlns="http://www.w3.org/2000/svg">
<path d="M10.86 1.25329L10.7467 1.13996C10.3717 0.765426 9.86338 0.555054 9.33338 0.555054C8.80337 0.555054 8.29504 0.765426 7.92004 1.13996L1.52671 7.52663C1.44144 7.61331 1.3815 7.72166 1.35338 7.83996L0.686709 10.5066C0.654969 10.6193 0.653467 10.7384 0.682354 10.8519C0.711242 10.9653 0.7695 11.0692 0.851269 11.153C0.933037 11.2368 1.03543 11.2975 1.14815 11.3292C1.26087 11.3609 1.37994 11.3623 1.49338 11.3333L4.16004 10.6666C4.27834 10.6385 4.38669 10.5786 4.47338 10.4933L10.86 4.09996C11.2346 3.72496 11.4449 3.21663 11.4449 2.68663C11.4449 2.15663 11.2346 1.64829 10.86 1.27329V1.25329ZM3.66004 9.39996L2.24671 9.75329L2.60004 8.33996L6.98671 3.95329L8.04671 5.01329L3.66004 9.39996ZM9.92004 3.13996L8.98671 4.06663L7.93338 3.01329L8.86004 2.07996C8.92202 2.01747 8.99575 1.96788 9.07699 1.93403C9.15823 1.90019 9.24537 1.88276 9.33338 1.88276C9.42138 1.88276 9.50852 1.90019 9.58976 1.93403C9.671 1.96788 9.74473 2.01747 9.80671 2.07996L9.92004 2.19329C9.98253 2.25527 10.0321 2.329 10.066 2.41024C10.0998 2.49148 10.1172 2.57862 10.1172 2.66663C10.1172 2.75464 10.0998 2.84177 10.066 2.92301C10.0321 3.00425 9.98253 3.07799 9.92004 3.13996Z" fill="white" fill-opacity="0.5"/>
</svg>
