<svg width="16" height="15" viewBox="0 0 16 15" fill="none" xmlns="http://www.w3.org/2000/svg">
<path fill-rule="evenodd" clip-rule="evenodd" d="M8.59778 1.03824C8.48547 0.810705 8.25373 0.666656 7.99998 0.666656C7.74623 0.666656 7.51449 0.810705 7.40217 1.03824L5.49714 4.89763L1.23689 5.52033C0.985853 5.55703 0.7774 5.73303 0.699148 5.97437C0.620896 6.21571 0.686411 6.48054 0.868157 6.65756L3.9503 9.65957L3.22291 13.9006C3.18001 14.1508 3.28284 14.4035 3.48816 14.5527C3.69347 14.7018 3.96567 14.7215 4.19028 14.6034L7.99998 12.5999L11.8097 14.6034C12.0343 14.7215 12.3065 14.7018 12.5118 14.5527C12.7171 14.4035 12.82 14.1508 12.7771 13.9006L12.0497 9.65957L15.1318 6.65756C15.3135 6.48054 15.3791 6.21571 15.3008 5.97437C15.2226 5.73303 15.0141 5.55703 14.7631 5.52033L10.5028 4.89763L8.59778 1.03824ZM6.53778 5.80174L7.99998 2.83949L9.46217 5.80174C9.5592 5.9983 9.74666 6.13461 9.96356 6.16631L13.2344 6.64439L10.8682 8.94909C10.7109 9.10225 10.6391 9.323 10.6762 9.53935L11.2345 12.7944L8.31028 11.2566C8.11602 11.1545 7.88393 11.1545 7.68968 11.2566L4.76543 12.7944L5.32372 9.53935C5.36083 9.323 5.28905 9.10225 5.1318 8.94909L2.76559 6.64439L6.0364 6.16631C6.2533 6.13461 6.44076 5.9983 6.53778 5.80174Z" fill="#FFED00"/>
<path d="M7.99998 2.83949L6.53778 5.80174C6.44076 5.9983 6.2533 6.13461 6.0364 6.16631L2.76559 6.64439L5.1318 8.94909C5.28905 9.10225 5.36083 9.323 5.32372 9.53935L4.76543 12.7944L7.68968 11.2566C7.88393 11.1545 8.11602 11.1545 8.31028 11.2566L11.2345 12.7944L10.6762 9.53935C10.6391 9.323 10.7109 9.10225 10.8682 8.94909L13.2344 6.64439L9.96356 6.16631C9.74666 6.13461 9.5592 5.9983 9.46217 5.80174L7.99998 2.83949Z" fill="#FFED00"/>
</svg>
