<svg width="20" height="18" viewBox="0 0 20 18" fill="none" xmlns="http://www.w3.org/2000/svg">
<path d="M12.1164 3.22216C10.3253 3.96806 6.74312 5.51051 1.37447 7.84951C0.504256 8.19483 0.0461253 8.53555 0.00468631 8.86706C-0.0643034 9.42587 0.636246 9.64701 1.59004 9.94809L1.59318 9.94908L1.99606 10.0757C2.93534 10.3819 4.20153 10.7387 4.85765 10.7525C5.45621 10.7663 6.12153 10.5223 6.85592 10.0158C11.8723 6.62936 14.4623 4.91885 14.6234 4.88202C14.7385 4.85439 14.8997 4.82216 15.0056 4.91885C15.1138 5.01324 15.1023 5.19511 15.0908 5.24346C15.0229 5.53528 12.361 8.01216 10.9164 9.35627L10.841 9.42649C10.3967 9.84088 10.0813 10.1333 10.0168 10.2C9.87485 10.3451 9.73056 10.4878 9.58399 10.6282C8.70917 11.4708 8.05535 12.1016 9.61852 13.133C10.3713 13.6302 10.9745 14.0377 11.5754 14.4475C12.2292 14.8941 12.883 15.3384 13.7302 15.8956C13.9443 16.0337 14.1515 16.1833 14.3518 16.3261C15.1138 16.8694 15.8021 17.3574 16.647 17.2792C17.1397 17.2331 17.6485 16.7727 17.9063 15.3914C18.5164 12.1292 19.7158 5.06389 19.9921 2.15165C20.0089 1.90956 19.9989 1.66635 19.9621 1.42647C19.9405 1.23291 19.8468 1.05458 19.6997 0.9269C19.4902 0.7823 19.2405 0.707386 18.986 0.712798C18.2954 0.724309 17.2295 1.09496 12.1164 3.22216Z" fill="#2C2E35"/>
</svg>
