<svg width="20" height="20" viewBox="0 0 20 20" fill="none" xmlns="http://www.w3.org/2000/svg">
<rect width="20" height="20" rx="10" fill="#006CBC"/>
<path d="M12.784 14.26H7.288V13.228L10.024 10.708C10.416 10.348 10.744 9.96799 11.008 9.56799C11.272 9.15999 11.404 8.75199 11.404 8.34399V8.19999C11.404 7.73599 11.276 7.35999 11.02 7.07199C10.764 6.78399 10.376 6.63999 9.856 6.63999C9.6 6.63999 9.376 6.67599 9.184 6.74799C8.992 6.81999 8.824 6.91999 8.68 7.04799C8.544 7.17599 8.428 7.32799 8.332 7.50399C8.244 7.67199 8.172 7.85599 8.116 8.05599L7.216 7.70799C7.296 7.45999 7.404 7.21999 7.54 6.98799C7.684 6.74799 7.86 6.53599 8.068 6.35199C8.284 6.16799 8.54 6.01999 8.836 5.90799C9.14 5.79599 9.496 5.73999 9.904 5.73999C10.312 5.73999 10.676 5.79999 10.996 5.91999C11.316 6.03999 11.584 6.20799 11.8 6.42399C12.016 6.63999 12.18 6.89599 12.292 7.19199C12.412 7.48799 12.472 7.81599 12.472 8.17599C12.472 8.50399 12.424 8.80799 12.328 9.08799C12.24 9.36799 12.116 9.63599 11.956 9.89199C11.796 10.14 11.6 10.384 11.368 10.624C11.144 10.864 10.9 11.104 10.636 11.344L8.38 13.372H12.784V14.26Z" fill="white"/>
</svg>
