<svg width="20" height="20" viewBox="0 0 20 20" fill="none" xmlns="http://www.w3.org/2000/svg">
<rect width="20" height="20" rx="10" fill="#006CBC"/>
<path d="M9.84998 9.36397C10.418 9.36397 10.842 9.23597 11.122 8.97997C11.41 8.71597 11.554 8.37997 11.554 7.97197V7.88797C11.554 7.44797 11.414 7.11997 11.134 6.90397C10.862 6.67997 10.502 6.56797 10.054 6.56797C9.62198 6.56797 9.26998 6.66397 8.99799 6.85597C8.72598 7.03997 8.50198 7.29197 8.32598 7.61197L7.58198 7.03597C7.68598 6.86797 7.80998 6.70397 7.95398 6.54397C8.10598 6.37597 8.28198 6.22797 8.48198 6.09997C8.68198 5.97197 8.91398 5.86797 9.17798 5.78797C9.44198 5.70797 9.74198 5.66797 10.078 5.66797C10.43 5.66797 10.762 5.71597 11.074 5.81197C11.386 5.89997 11.654 6.03597 11.878 6.21997C12.11 6.39597 12.29 6.61597 12.418 6.87997C12.554 7.14397 12.622 7.44397 12.622 7.77997C12.622 8.05197 12.578 8.29597 12.49 8.51197C12.41 8.72797 12.298 8.91597 12.154 9.07597C12.01 9.23597 11.838 9.37197 11.638 9.48397C11.446 9.59597 11.238 9.67997 11.014 9.73597V9.78397C11.238 9.83197 11.454 9.91197 11.662 10.024C11.878 10.128 12.066 10.268 12.226 10.444C12.394 10.612 12.526 10.82 12.622 11.068C12.726 11.308 12.778 11.584 12.778 11.896C12.778 12.256 12.71 12.588 12.574 12.892C12.438 13.188 12.246 13.444 11.998 13.66C11.75 13.868 11.45 14.032 11.098 14.152C10.746 14.272 10.358 14.332 9.93398 14.332C9.57399 14.332 9.25398 14.292 8.97398 14.212C8.69398 14.132 8.44598 14.024 8.22998 13.888C8.01398 13.752 7.82198 13.6 7.65398 13.432C7.49398 13.264 7.34998 13.088 7.22198 12.904L7.97798 12.328C8.08198 12.496 8.19398 12.648 8.31398 12.784C8.44198 12.92 8.58198 13.036 8.73398 13.132C8.88598 13.228 9.05798 13.304 9.24998 13.36C9.44199 13.408 9.66599 13.432 9.92199 13.432C10.514 13.432 10.962 13.3 11.266 13.036C11.57 12.764 11.722 12.38 11.722 11.884V11.788C11.722 11.292 11.57 10.912 11.266 10.648C10.962 10.376 10.514 10.24 9.92199 10.24H8.93798V9.36397H9.84998Z" fill="white"/>
</svg>
